<?xml version="1.0" standalone="no"?><!DOCTYPE svg PUBLIC "-//W3C//DTD SVG 1.1//EN" "http://www.w3.org/Graphics/SVG/1.1/DTD/svg11.dtd"><svg t="1567997303829" class="icon" viewBox="0 0 1260 1024" version="1.1" xmlns="http://www.w3.org/2000/svg" p-id="4658" xmlns:xlink="http://www.w3.org/1999/xlink" width="246.09375" height="200"><defs><style type="text/css"></style></defs><path d="M980.17002862 401.23076937m-177.23076936 0a177.23076937 177.23076937 0 1 0 354.46153875 0 177.23076937 177.23076937 0 1 0-354.46153875 0Z" fill="#AFFCFE" p-id="4659"></path><path d="M1216.47772052 696.61538469c0 162.46153875-132.92307655 295.38461531-295.38461532 295.38461531H330.32387457C167.86233581 992 34.93925926 860.55384594 34.93925926 696.61538469c0-106.33846125 57.6-203.81538469 149.16923062-256.98461532-1.47692343-10.33846125-1.47692343-20.67692343-1.47692251-31.01538468C182.63156737 200.36923063 351.00079801 32 559.24695114 32 764.53925926 32 931.43156738 195.93846125 935.86233581 401.23076937c156.55384594 8.86153875 280.61538469 137.35384594 280.61538471 295.38461532z" fill="#2F77F1" p-id="4660"></path></svg>